# Blender 5.1.1
# www.blender.org
mtllib apple.mtl
o Esfera
v -0.000000 1.585420 0.084057
v -0.000000 0.743244 -0.550490
v 0.000000 -0.222521 -0.974928
v 0.000000 -0.623490 -0.781831
v 0.000000 -0.900969 -0.433884
v 0.082720 1.563053 0.126254
v 0.476739 0.743244 -0.275245
v 0.844312 0.222521 -0.487464
v 0.844312 -0.222521 -0.487464
v 0.677086 -0.623490 -0.390916
v 0.375755 -0.900969 -0.216942
v 0.082720 1.518319 0.210648
v 0.476738 0.743245 0.275245
v 0.844312 0.222521 0.487464
v 0.844312 -0.222521 0.487464
v 0.677086 -0.623490 0.390916
v 0.375755 -0.900969 0.216942
v -0.000000 1.495952 0.252845
v -0.000000 0.743245 0.550490
v -0.000000 0.222521 0.974928
v -0.000000 -0.222521 0.974928
v -0.000000 -0.623490 0.781832
v -0.000000 -0.900969 0.433884
v 0.000000 -0.824390 0.000000
v -0.000000 1.540592 0.168401
v -0.082720 1.518319 0.210648
v -0.476739 0.743245 0.275245
v -0.844313 0.222521 0.487464
v -0.844313 -0.222521 0.487464
v -0.677086 -0.623490 0.390916
v -0.375755 -0.900969 0.216942
v -0.082720 1.563053 0.126254
v -0.476738 0.743244 -0.275245
v -0.844312 0.222521 -0.487464
v -0.844312 -0.222521 -0.487464
v -0.677086 -0.623490 -0.390916
v -0.375754 -0.900969 -0.216942
v 0.000000 0.222521 -0.974928
v 0.000000 0.631684 -0.049142
v 0.042558 0.631684 -0.024571
v 0.042558 0.631684 0.024571
v -0.000000 0.631684 0.049142
v -0.042558 0.631684 0.024571
v -0.042558 0.631684 -0.024571
v 0.000000 -0.833407 -0.116383
v 0.100791 -0.833407 0.058192
v -0.100791 -0.833407 0.058192
v -0.000000 -0.835575 0.120304
v 0.104186 -0.835575 -0.060152
v -0.104186 -0.835575 -0.060152
v -0.000000 1.116700 -0.017451
v 0.062639 1.101443 0.015338
v 0.062639 1.070929 0.080915
v -0.000000 1.055672 0.113704
v -0.066179 1.204066 0.065153
v -0.066224 1.204932 0.057876
v -0.000000 1.360992 0.009458
v 0.072679 1.337214 0.044032
v 0.072679 1.289660 0.113182
v -0.000000 1.265882 0.147756
v -0.065935 1.211423 0.066726
v -0.065467 1.213296 0.057951
v -0.000000 0.872605 -0.051156
v 0.052598 0.865770 -0.021568
v 0.052598 0.852100 0.037610
v -0.000000 0.845265 0.067198
v -0.052598 0.852100 0.037610
v -0.052598 0.865770 -0.021568
v -0.072679 1.289660 0.113181
v -0.062639 1.070929 0.080915
v -0.072679 1.337214 0.044032
v -0.062639 1.101443 0.015338
v -0.533313 1.191568 0.063800
v -0.532550 1.188369 0.062156
v -0.535141 1.205744 0.044929
v -0.534563 1.202448 0.043339
v -0.150103 1.292882 -0.033140
v -0.232974 1.291161 -0.103611
v -0.381422 1.278979 -0.086626
v -0.463378 1.266824 -0.051040
v -0.445201 1.155073 0.137779
v -0.366193 1.169114 0.200523
v -0.227162 1.183585 0.217013
v -0.147446 1.192786 0.159205
v -0.150381 1.286771 -0.039009
v -0.232258 1.288492 -0.094758
v -0.368439 1.278089 -0.081029
v -0.459804 1.262672 -0.049136
v -0.153364 1.190213 0.156357
v -0.227666 1.189599 0.204792
v -0.365528 1.174920 0.186952
v -0.444847 1.151958 0.127158
v -0.388675 1.294993 -0.018966
v -0.534907 1.203744 0.047505
v -0.241579 1.306299 -0.039168
v -0.159727 1.290448 -0.003449
v -0.460259 1.252871 0.027904
v -0.383501 1.229957 0.149943
v -0.533958 1.196616 0.057160
v -0.240622 1.246974 0.149036
v -0.159514 1.271445 0.090965
v -0.453072 1.207796 0.093495
v -0.534475 1.200478 0.051924
v -0.385646 1.269685 0.072673
v -0.239363 1.283638 0.079301
v -0.159237 1.284375 0.075940
v -0.457510 1.239301 0.061331
v -0.395739 1.262028 0.034080
v -0.533941 1.198090 0.049186
v -0.253700 1.276425 0.021940
v -0.167697 1.277551 0.027068
v -0.457810 1.243617 0.038336
v -0.389593 1.218587 0.094328
v -0.165094 1.245096 0.091185
v -0.250280 1.233622 0.107425
v -0.533346 1.193934 0.054737
v -0.452942 1.205767 0.086438
v -0.399112 1.240896 0.066775
v -0.533792 1.197066 0.050484
v -0.261700 1.259093 0.067554
v -0.175127 1.264541 0.061860
v -0.455451 1.226598 0.062993
v -0.107452 1.218964 0.044939
v -0.107577 1.205086 0.044702
v -0.107763 1.214717 0.081566
v -0.107569 1.207624 0.076499
vn 0.4615 -0.3849 -0.7993
vn 0.4085 0.5767 -0.7075
vn -0.0000 0.8830 0.4693
vn -0.0000 0.8836 0.4683
vn -0.0010 0.8833 0.4688
vn 0.3387 -0.7356 -0.5866
vn 0.5000 -0.0000 -0.8660
vn 0.4904 0.2769 -0.8263
vn -0.1202 -0.9717 0.2035
vn -0.2364 -0.9717 0.0024
vn 0.9229 -0.3849 -0.0000
vn 0.8170 0.5767 -0.0000
vn -0.0010 0.8838 0.4678
vn 0.6774 -0.7356 -0.0000
vn 1.0000 -0.0000 -0.0000
vn 0.9989 -0.0404 -0.0235
vn 0.9991 -0.0357 -0.0214
vn 0.9991 -0.0361 -0.0216
vn 0.4615 -0.3849 0.7993
vn 0.4085 0.5767 0.7075
vn -0.0000 0.8841 0.4674
vn 0.3387 -0.7356 0.5866
vn 0.5000 -0.0000 0.8660
vn 0.4969 -0.3596 0.7898
vn -0.1161 -0.9717 -0.2059
vn 0.0010 0.8838 0.4678
vn -0.3387 -0.7356 0.5866
vn -0.5000 -0.0000 0.8660
vn -0.4969 -0.3596 0.7898
vn 0.1161 -0.9717 -0.2059
vn -0.4615 -0.3849 0.7993
vn -0.4085 0.5767 0.7075
vn -0.6774 -0.7356 -0.0000
vn -1.0000 -0.0000 -0.0000
vn -0.9991 -0.0357 -0.0214
vn 0.2364 -0.9717 0.0024
vn -0.9229 -0.3849 -0.0000
vn -0.8170 0.5767 -0.0000
vn 0.0010 0.8833 0.4688
vn -0.5000 -0.0000 -0.8660
vn -0.4904 0.2769 -0.8263
vn 0.1202 -0.9717 0.2035
vn -0.4615 -0.3849 -0.7993
vn -0.4085 0.5767 -0.7075
vn -0.3387 -0.7356 -0.5866
vn 0.1244 0.9685 0.2155
vn 0.2489 0.9685 -0.0000
vn 0.1244 0.9685 -0.2155
vn -0.1244 0.9685 -0.2155
vn -0.2489 0.9685 -0.0000
vn -0.1244 0.9685 0.2155
vn 0.0623 -0.9951 0.0771
vn 0.0979 -0.9951 0.0154
vn 0.0356 -0.9951 -0.0925
vn -0.0356 -0.9951 -0.0925
vn -0.0979 -0.9951 0.0154
vn -0.0623 -0.9951 0.0771
vn -0.4900 0.1169 -0.8638
vn -0.9990 -0.0416 -0.0144
vn -0.9995 -0.0303 -0.0121
vn -0.9991 -0.0409 -0.0146
vn -0.9990 -0.0438 -0.0060
vn -0.4952 -0.1890 0.8480
vn 0.4952 -0.1890 0.8480
vn 0.9990 -0.0438 -0.0060
vn 0.9990 -0.0415 -0.0155
vn 0.9989 -0.0410 -0.0230
vn 0.9990 -0.0416 -0.0144
vn 0.4900 0.1169 -0.8638
vn -0.4649 0.0923 -0.8805
vn -0.3834 0.5783 0.7201
vn -0.4742 -0.1454 0.8683
vn 0.4742 -0.1454 0.8683
vn 0.4649 0.0923 -0.8805
vn 0.4942 -0.0086 -0.8693
vn 0.9990 -0.0439 -0.0055
vn 0.4973 -0.0734 0.8645
vn -0.4973 -0.0734 0.8645
vn -0.9990 -0.0439 -0.0055
vn -0.4942 -0.0086 -0.8693
vn -0.9964 -0.0313 -0.0790
vn -0.9979 -0.0436 0.0483
vn -0.9995 -0.0288 -0.0118
vn -0.9971 -0.0616 -0.0451
vn -0.9819 -0.1851 -0.0387
vn -0.6050 -0.3669 -0.7066
vn 0.4484 -0.8639 -0.2293
vn -0.5736 -0.7484 0.3331
vn 0.7356 -0.6330 0.2411
vn -0.0710 -0.9786 -0.1933
vn 0.1457 -0.8997 -0.4114
vn 0.2946 -0.9511 -0.0934
vn -0.6159 -0.7324 -0.2903
vn 0.0357 -0.9935 -0.1081
vn 0.0787 -0.9915 -0.1038
vn 0.1800 -0.9727 -0.1461
vn 0.9163 0.1000 -0.3878
vn 0.5914 -0.2329 -0.7720
vn 0.0459 -0.9590 -0.2797
vn -0.0483 -0.8750 -0.4817
vn 0.7133 0.6518 0.2575
vn 0.3267 0.6841 0.6522
vn -0.1154 0.6707 0.7327
vn -0.6292 0.4113 0.6594
vn -0.4925 0.8500 0.1866
vn -0.3441 0.9386 -0.0229
vn 0.1510 0.9831 -0.1034
vn -0.1069 0.9648 -0.2403
vn -0.4408 0.8058 0.3955
vn -0.3732 0.8809 0.2911
vn 0.0637 0.9877 0.1426
vn -0.0733 0.9719 0.2237
vn -0.1036 0.8823 0.4591
vn 0.0577 0.8612 0.5050
vn -0.5007 0.7114 0.4932
vn -0.3939 0.6412 0.6585
vn 0.0874 -0.8991 -0.4289
vn 0.2267 -0.7166 -0.6596
vn 0.3555 -0.6878 -0.6329
vn 0.0126 -0.8369 -0.5472
vn 0.1250 -0.7908 -0.5992
vn 0.3513 -0.5574 -0.7523
vn -0.1352 -0.8589 -0.4940
vn 0.1443 -0.8845 -0.4437
vn 0.4495 -0.6660 -0.5953
vn 0.0346 -0.9372 -0.3470
vn 0.3685 -0.7462 -0.5544
vn 0.2226 -0.8135 -0.5372
vn 0.2999 0.0015 -0.9540
vn 0.2438 -0.4057 0.8809
vt 0.666667 0.285714
vt 0.666667 0.428571
vt 0.500000 0.428571
vt 0.500000 0.285714
vt 0.666667 0.571429
vt 0.666667 0.714286
vt 0.500000 0.714286
vt 0.500000 0.571429
vt 0.666667 0.857143
vt 0.583333 1.000000
vt 0.500000 0.857143
vt 0.666667 0.142857
vt 0.500000 0.142857
vt 0.666667 0.839286
vt 0.500000 0.839286
vt 0.625000 0.071429
vt 0.520833 0.107143
vt 0.375000 0.071429
vt 0.479167 0.107143
vt 0.333333 0.142857
vt 0.333333 0.428571
vt 0.333333 0.285714
vt 0.333333 0.714286
vt 0.333333 0.571429
vt 0.416667 1.000000
vt 0.333333 0.857143
vt 0.333333 0.839286
vt 0.166667 0.428571
vt 0.166667 0.285714
vt 0.166667 0.714286
vt 0.166667 0.571429
vt 0.250000 1.000000
vt 0.166667 0.857143
vt 0.166667 0.142857
vt 0.166667 0.839286
vt 0.291667 0.071429
vt 0.187500 0.107143
vt 0.083333 1.000000
vt 0.000000 0.857143
vt 0.000000 0.285714
vt 0.000000 0.142857
vt 0.000000 0.571429
vt 0.000000 0.428571
vt 0.000000 0.839286
vt 0.041667 0.071429
vt 0.145833 0.107143
vt 0.000000 0.714286
vt 1.000000 0.142857
vt 1.000000 0.285714
vt 0.833333 0.285714
vt 0.833333 0.142857
vt 1.000000 0.428571
vt 1.000000 0.571429
vt 0.833333 0.571429
vt 0.833333 0.428571
vt 1.000000 0.839286
vt 1.000000 0.857143
vt 0.833333 0.857143
vt 0.833333 0.839286
vt 0.958333 0.071429
vt 0.854167 0.107143
vt 1.000000 0.714286
vt 0.833333 0.714286
vt 0.916667 1.000000
vt 0.708333 0.071429
vt 0.812500 0.107143
vt 0.750000 1.000000
vt 0.833333 0.785714
vt 0.666667 0.785714
vt 1.000000 0.785714
vt 0.166667 0.785714
vt 0.000000 0.785714
vt 0.333333 0.785714
vt 0.500000 0.785714
vt 0.750000 0.000000
vt 0.916667 0.000000
vt 0.083333 0.000000
vt 0.250000 0.000000
vt 0.416667 0.000000
vt 0.583333 0.000000
vt 0.833333 0.803571
vt 0.833333 0.821429
vt 0.666667 0.821429
vt 0.666667 0.803571
vt 1.000000 0.803571
vt 1.000000 0.821429
vt 0.166667 0.803571
vt 0.166667 0.821429
vt 0.000000 0.821429
vt 0.000000 0.803571
vt 0.333333 0.803571
vt 0.333333 0.821429
vt 0.500000 0.803571
vt 0.500000 0.821429
vt 0.939664 0.836955
vt 0.921007 0.836965
vt 0.921894 0.836964
vt 0.939664 0.836955
vt 0.936022 0.823644
vt 0.897439 0.823622
vt 0.893844 0.836980
vt 0.914279 0.836969
vt 0.906664 0.836973
vt 0.908415 0.823628
vt 0.914202 0.823632
vt 0.919988 0.823635
vt 0.897439 0.823622
vt 0.912746 0.823631
vt 0.936022 0.823644
vt 0.936023 0.823644
vt 0.939664 0.836955
vt 0.936023 0.823644
vt 0.939664 0.836955
vt 0.924162 0.823638
vt 0.916837 0.823633
vt 0.909513 0.823629
vt 0.897439 0.823622
vt 0.910555 0.823629
vt 0.897439 0.823622
vt 0.911336 0.823630
vt 0.893844 0.836980
vt 0.893844 0.836980
vt 0.893844 0.836980
vt 0.909283 0.836971
vt 0.913671 0.836969
vt 0.918058 0.836967
vt 0.920900 0.836965
vt 0.921046 0.836965
vt 0.909965 0.836971
vt 0.907879 0.836972
vt 0.906880 0.836973
vt 0.915486 0.836968
vt 0.914463 0.836969
vt 0.913890 0.836969
vt 0.916943 0.823633
vt 0.916785 0.823633
vt 0.916379 0.823633
vt 0.922234 0.823636
vt 0.920012 0.823635
vt 0.923331 0.823637
s 1
usemtl apple
f 4/1/1 3/2/1 9/3/1 10/4/1
f 38/5/2 2/6/2 7/7/2 8/8/2
f 5/12/6 4/1/6 10/4/6 11/13/6
f 3/2/7 38/5/7 8/8/7 9/3/7
f 45/16/9 5/12/9 11/13/9 49/17/9
f 46/18/10 49/19/10 11/13/10 17/20/10
f 10/4/11 9/3/11 15/21/11 16/22/11
f 8/8/12 7/7/12 13/23/12 14/24/12
f 11/13/14 10/4/14 16/22/14 17/20/14
f 9/3/15 8/8/15 14/24/15 15/21/15
f 16/22/19 15/21/19 21/28/19 22/29/19
f 14/24/20 13/23/20 19/30/20 20/31/20
f 17/20/22 16/22/22 22/29/22 23/34/22
f 15/21/23 14/24/23 20/31/23 21/28/23
f 46/36/25 17/20/25 23/34/25 48/37/25
f 23/34/27 22/29/27 30/40/27 31/41/27
f 21/28/28 20/31/28 28/42/28 29/43/28
f 47/45/30 48/46/30 23/34/30 31/41/30
f 22/29/31 21/28/31 29/43/31 30/40/31
f 20/31/32 19/30/32 27/47/32 28/42/32
f 31/48/33 30/49/33 36/50/33 37/51/33
f 29/52/34 28/53/34 34/54/34 35/55/34
f 47/60/36 31/48/36 37/51/36 50/61/36
f 30/49/37 29/52/37 35/55/37 36/50/37
f 28/53/38 27/62/38 33/63/38 34/54/38
f 35/55/40 34/54/40 38/5/40 3/2/40
f 45/65/42 50/66/42 37/51/42 5/12/42
f 36/50/43 35/55/43 3/2/43 4/1/43
f 34/54/44 33/63/44 2/6/44 38/5/44
f 37/51/45 36/50/45 4/1/45 5/12/45
f 33/63/46 44/68/46 39/69/46 2/6/46
f 27/62/47 43/70/47 44/68/47 33/63/47
f 19/30/48 42/71/48 43/72/48 27/47/48
f 13/23/49 41/73/49 42/71/49 19/30/49
f 7/7/50 40/74/50 41/73/50 13/23/50
f 2/6/51 39/69/51 40/74/51 7/7/51
f 24/75/52 50/66/52 45/65/52
f 24/76/53 47/60/53 50/61/53
f 24/77/54 48/46/54 47/45/54
f 24/78/55 46/36/55 48/37/55
f 24/79/56 49/19/56 46/18/56
f 24/80/57 45/16/57 49/17/57
usemtl palo
f 1/9/3 25/10/4 6/11/5
f 57/14/8 1/9/8 6/11/8 58/15/8
f 6/11/5 25/25/4 12/26/13
f 58/15/16 6/11/17 12/26/17 59/27/18
f 12/26/13 25/32/4 18/33/21
f 59/27/24 12/26/24 18/33/24 60/35/24
f 18/33/21 25/38/4 26/39/26
f 60/35/29 18/33/29 26/39/29 69/44/29
f 69/56/35 26/57/35 32/58/35 71/59/35
f 26/57/26 25/64/4 32/58/39
f 71/59/41 32/58/41 1/9/41 57/14/41
f 32/58/39 25/67/4 1/9/3
f 68/81/58 72/82/58 51/83/58 63/84/58
f 67/85/59 70/86/60 72/82/61 68/81/62
f 66/87/63 54/88/63 70/89/63 67/90/63
f 65/91/64 53/92/64 54/88/64 66/87/64
f 64/93/65 52/94/66 53/92/67 65/91/68
f 63/84/69 51/83/69 52/94/69 64/93/69
f 72/82/70 71/59/70 57/14/70 51/83/70
f 54/88/72 60/35/72 69/44/72 70/89/72
f 53/92/73 59/27/73 60/35/73 54/88/73
f 52/94/66 58/15/16 59/27/18 53/92/67
f 51/83/74 57/14/74 58/15/74 52/94/74
f 39/69/75 63/84/75 64/93/75 40/74/75
f 40/74/76 64/93/65 65/91/68 41/73/76
f 41/73/77 65/91/77 66/87/77 42/71/77
f 42/71/78 66/87/78 67/90/78 43/72/78
f 43/70/79 67/85/59 68/81/62 44/68/79
f 44/68/80 68/81/80 63/84/80 39/69/80
f 61/98/81 55/99/81 70/86/81 69/56/81
f 56/100/82 62/101/82 71/59/82 72/82/82
f 55/99/83 56/100/83 72/82/61 70/86/60
f 62/101/84 61/98/84 69/56/84 71/59/84
usemtl hoja
f 81/95/71 102/96/71 99/97/71 73/98/71
f 74/99/85 73/98/85 99/97/85 103/102/85 94/103/85 75/101/85 76/100/85 109/104/85 119/105/85 116/106/85
f 80/101/86 88/107/86 76/100/86 75/101/86
f 88/107/87 112/108/87 109/104/87 76/100/87
f 92/109/88 81/95/88 73/98/88 74/99/88
f 126/110/89 125/111/89 84/98/89 89/112/89
f 89/112/90 84/98/90 83/98/90 90/109/90
f 90/109/91 83/98/91 82/113/91 91/109/91
f 91/109/92 82/113/92 81/95/92 92/109/92
f 56/100/93 55/99/93 126/110/93 89/112/93 114/114/93 121/115/93 111/116/93 85/117/93 124/117/93
f 85/117/94 111/116/94 110/118/94 86/119/94
f 86/119/95 110/118/95 108/120/95 87/119/95
f 87/119/96 108/120/96 112/108/96 88/107/96
f 123/121/97 124/117/97 85/117/97 77/122/97
f 77/122/98 85/117/98 86/119/98 78/123/98
f 78/123/99 86/119/99 87/119/99 79/101/99
f 79/101/100 87/119/100 88/107/100 80/101/100
f 61/98/101 62/101/101 123/121/101 77/122/101 96/124/101 106/125/101 101/126/101 84/98/101 125/111/101
f 84/98/102 101/126/102 100/127/102 83/98/102
f 83/98/103 100/127/103 98/128/103 82/113/103
f 82/113/104 98/128/104 102/96/104 81/95/104
f 94/103/105 97/129/105 80/101/105 75/101/105
f 97/129/106 93/130/106 79/101/106 80/101/106
f 95/131/107 96/124/107 77/122/107 78/123/107
f 93/130/108 95/131/108 78/123/108 79/101/108
f 103/102/109 107/132/109 97/129/109 94/103/109
f 107/132/110 104/133/110 93/130/110 97/129/110
f 105/134/111 106/125/111 96/124/111 95/131/111
f 104/133/112 105/134/112 95/131/112 93/130/112
f 98/128/113 100/127/113 105/134/113 104/133/113
f 100/127/114 101/126/114 106/125/114 105/134/114
f 102/96/115 98/128/115 104/133/115 107/132/115
f 99/97/116 102/96/116 107/132/116 103/102/116
f 108/120/117 110/118/117 120/135/117 118/136/117
f 122/137/118 118/136/118 113/138/118 117/139/118
f 119/105/119 122/137/119 117/139/119 116/106/119
f 120/135/120 121/115/120 114/114/120 115/140/120
f 118/136/121 120/135/121 115/140/121 113/138/121
f 116/106/122 117/139/122 92/109/122 74/99/122
f 115/140/123 114/114/123 89/112/123 90/109/123
f 113/138/124 115/140/124 90/109/124 91/109/124
f 117/139/125 113/138/125 91/109/125 92/109/125
f 110/118/126 111/116/126 121/115/126 120/135/126
f 109/104/127 112/108/127 122/137/127 119/105/127
f 112/108/128 108/120/128 118/136/128 122/137/128
f 62/101/129 56/100/129 124/117/129 123/121/129
f 55/99/130 61/98/130 125/111/130 126/110/130
